<svg width="42" height="40" viewBox="0 0 42 40" fill="none" xmlns="http://www.w3.org/2000/svg">
<path d="M0 19.9167C0 8.91699 8.917 0 19.9167 0H22C32.9997 0 41.9167 8.91699 41.9167 19.9167C41.9167 30.9163 32.9997 39.8333 22 39.8333H19.9167C8.917 39.8333 0 30.9163 0 19.9167Z" fill="#F5F5F5"/>
<path d="M18.5625 18.6667C20.4035 18.6667 21.8958 17.1743 21.8958 15.3333C21.8958 13.4924 20.4035 12 18.5625 12C16.7216 12 15.2292 13.4924 15.2292 15.3333C15.2292 17.1743 16.7216 18.6667 18.5625 18.6667Z" stroke="#2A2E33" stroke-width="1.5"/>
<path d="M18.5625 27.8333C21.7842 27.8333 24.3958 26.341 24.3958 24.5C24.3958 22.6591 21.7842 21.1667 18.5625 21.1667C15.3408 21.1667 12.7292 22.6591 12.7292 24.5C12.7292 26.341 15.3408 27.8333 18.5625 27.8333Z" stroke="#2A2E33" stroke-width="1.5"/>
<path d="M26.0625 17.5367L25.6192 17.9767C25.6773 18.0351 25.7463 18.0815 25.8224 18.1132C25.8985 18.1448 25.9801 18.1611 26.0625 18.1611C26.1449 18.1611 26.2265 18.1448 26.3026 18.1132C26.3787 18.0815 26.4477 18.0351 26.5058 17.9767L26.0625 17.5367ZM25.6825 20.285C25.2767 19.9758 24.9117 19.7283 24.6175 19.4075C24.345 19.11 24.1875 18.8033 24.1875 18.4158H22.9375C22.9375 19.2075 23.2825 19.8017 23.6958 20.2525C24.0883 20.68 24.5933 21.0275 24.9242 21.2792L25.6825 20.285ZM24.1875 18.4158C24.1875 18.0725 24.3875 17.7958 24.6433 17.6825C24.8658 17.5842 25.2183 17.5742 25.6192 17.9767L26.5058 17.0958C25.7808 16.3667 24.885 16.2083 24.1375 16.5392C23.7777 16.7031 23.4731 16.9675 23.2601 17.3006C23.0472 17.6338 22.9352 18.0205 22.9375 18.4158H24.1875ZM24.9242 21.2792C25.0475 21.3733 25.2092 21.4958 25.3783 21.5925C25.5475 21.6892 25.7842 21.7917 26.0625 21.7917V20.5417C26.0908 20.5417 26.0767 20.5508 25.9942 20.505C25.9108 20.4583 25.8175 20.3883 25.6825 20.285L24.9242 21.2792ZM27.2008 21.2792C27.5317 21.0267 28.0367 20.68 28.4283 20.2525C28.8425 19.8017 29.1875 19.2067 29.1875 18.4167H27.9375C27.9375 18.8033 27.78 19.11 27.5075 19.4083C27.2133 19.7283 26.8483 19.9758 26.4425 20.285L27.2008 21.2792ZM29.1875 18.4167C29.1875 17.5833 28.7 16.8542 27.9875 16.5392C27.2408 16.2083 26.3433 16.3667 25.6192 17.0958L26.5058 17.9767C26.9058 17.5742 27.2592 17.5842 27.4808 17.6825C27.6192 17.7482 27.7357 17.8522 27.8167 17.9822C27.8976 18.1122 27.9396 18.2635 27.9375 18.4167H29.1875ZM26.4425 20.285C26.3429 20.3642 26.2388 20.4377 26.1308 20.505C26.0483 20.5517 26.0342 20.5417 26.0625 20.5417V21.7917C26.3408 21.7917 26.5767 21.6892 26.7458 21.5925C26.9158 21.4967 27.0775 21.3733 27.2008 21.2792L26.4425 20.285Z" fill="#2A2E33"/>
</svg>
