<svg width="42" height="42" viewBox="0 0 42 42" fill="none" xmlns="http://www.w3.org/2000/svg">
<path d="M0 20.9167C0 9.36471 9.40638 0 20.9583 0C32.5103 0 41.9167 9.36471 41.9167 20.9167C41.9167 32.4686 32.5103 41.8333 20.9583 41.8333C9.40638 41.8333 0 32.4686 0 20.9167Z" fill="#F5F5F5"/>
<path d="M22.625 15.5H19.2917C18.1617 15.5 17.235 15.5 16.4667 15.545C15.0958 15.6258 14.2267 15.8508 13.6017 16.4767C12.625 17.4525 12.625 19.0242 12.625 22.1667C12.625 25.3092 12.625 26.8808 13.6017 27.8567C14.5783 28.8325 16.1492 28.8333 19.2917 28.8333H22.625C25.7675 28.8333 27.3392 28.8333 28.315 27.8567C29.2908 26.88 29.2917 25.3092 29.2917 22.1667C29.2917 19.0242 29.2917 17.4525 28.315 16.4767C27.69 15.8517 26.8208 15.6267 25.4508 15.545C24.6817 15.5 23.755 15.5 22.625 15.5Z" stroke="#2A2E33" stroke-width="1.5"/>
<path d="M16.4667 15.545C17.1525 15.5283 17.7583 15.045 17.9917 14.4L18.0208 14.3142L18.0417 14.25C18.0767 14.1442 18.095 14.0917 18.1133 14.045C18.2311 13.7523 18.4294 13.4991 18.6853 13.3147C18.9413 13.1303 19.2443 13.0223 19.5592 13.0033C19.6083 13 19.665 13 19.775 13H22.14C22.2508 13 22.3067 13 22.3567 13.0033C22.6715 13.0223 22.9746 13.1303 23.2305 13.3147C23.4864 13.4991 23.6848 13.7523 23.8025 14.045C23.8217 14.0917 23.8392 14.145 23.8742 14.25L23.8958 14.3142C23.9108 14.3583 23.9175 14.3808 23.925 14.4C24.1583 15.0458 24.7642 15.5283 25.45 15.545" stroke="#2A2E33" stroke-width="1.5"/>
<path d="M29.01 17.7667C26.5017 19.3967 25.2475 20.2117 23.9258 20.6225C21.9933 21.2229 19.9242 21.2229 17.9917 20.6225C16.6692 20.2117 15.415 19.3975 12.9067 17.7667M17.625 19.6667V21.3333M24.2917 19.6667V21.3333" stroke="#2A2E33" stroke-width="1.5" stroke-linecap="round"/>
</svg>
