<svg width="42" height="42" viewBox="0 0 42 42" fill="none" xmlns="http://www.w3.org/2000/svg">
<path d="M0 20.9583C0 9.38337 9.42503 0 21 0C32.575 0 42 9.38337 42 20.9583C42 32.5333 32.575 41.9167 21 41.9167C9.42503 41.9167 0 32.5333 0 20.9583Z" fill="#F5F5F5"/>
<path fill-rule="evenodd" clip-rule="evenodd" d="M20.4821 17.8333C19.6533 17.8333 18.8584 18.1626 18.2724 18.7486C17.6863 19.3347 17.3571 20.1295 17.3571 20.9583C17.3571 21.7871 17.6863 22.582 18.2724 23.168C18.8584 23.7541 19.6533 24.0833 20.4821 24.0833C21.3109 24.0833 22.1057 23.7541 22.6918 23.168C23.2778 22.582 23.6071 21.7871 23.6071 20.9583C23.6071 20.1295 23.2778 19.3347 22.6918 18.7486C22.1057 18.1626 21.3109 17.8333 20.4821 17.8333ZM18.6071 20.9583C18.6071 20.461 18.8046 19.9841 19.1562 19.6325C19.5079 19.2809 19.9848 19.0833 20.4821 19.0833C20.9794 19.0833 21.4563 19.2809 21.8079 19.6325C22.1595 19.9841 22.3571 20.461 22.3571 20.9583C22.3571 21.4556 22.1595 21.9325 21.8079 22.2841C21.4563 22.6358 20.9794 22.8333 20.4821 22.8333C19.9848 22.8333 19.5079 22.6358 19.1562 22.2841C18.8046 21.9325 18.6071 21.4556 18.6071 20.9583Z" fill="#2A2E33"/>
<path fill-rule="evenodd" clip-rule="evenodd" d="M20.4612 12C20.0904 12 19.7812 12 19.5279 12.0167C19.2689 12.0271 19.0135 12.0806 18.7721 12.175C18.4939 12.2901 18.2412 12.4588 18.0283 12.6716C17.8154 12.8843 17.6465 13.137 17.5312 13.415C17.4104 13.7067 17.3779 14.015 17.3646 14.35C17.3631 14.4725 17.3306 14.5926 17.2701 14.6991C17.2096 14.8056 17.1232 14.8951 17.0187 14.9592C16.9111 15.0178 16.7903 15.0481 16.6678 15.0474C16.5452 15.0467 16.4248 15.0149 16.3179 14.955C16.0212 14.7983 15.7379 14.6725 15.4246 14.6308C15.1262 14.5916 14.823 14.6115 14.5323 14.6894C14.2416 14.7673 13.9691 14.9018 13.7304 15.085C13.5282 15.2471 13.3545 15.4417 13.2162 15.6608C13.0746 15.8725 12.9196 16.14 12.7346 16.4608L12.7137 16.4975C12.5279 16.8183 12.3737 17.0858 12.2621 17.3142C12.1454 17.5525 12.0537 17.7875 12.0204 18.0475C11.9409 18.65 12.104 19.2594 12.4737 19.7417C12.6662 19.9925 12.9171 20.175 13.2004 20.3533C13.3059 20.4159 13.3939 20.5042 13.4559 20.61C13.518 20.7159 13.5523 20.8357 13.5554 20.9583C13.5523 21.081 13.518 21.2008 13.4559 21.3066C13.3939 21.4124 13.3059 21.5008 13.2004 21.5633C12.9171 21.7417 12.6671 21.9242 12.4737 22.175C12.2905 22.4137 12.1561 22.6862 12.0782 22.9769C12.0002 23.2676 11.9803 23.5708 12.0196 23.8692C12.0537 24.1292 12.1446 24.3642 12.2612 24.6025C12.3737 24.8308 12.5279 25.0983 12.7137 25.4192L12.7346 25.4558C12.9196 25.7767 13.0746 26.0442 13.2162 26.2558C13.3637 26.475 13.5221 26.6725 13.7304 26.8308C13.9691 27.0142 14.2415 27.1488 14.5322 27.2269C14.8229 27.3049 15.1261 27.325 15.4246 27.2858C15.7379 27.2442 16.0212 27.1192 16.3179 26.9617C16.4247 26.9019 16.545 26.8702 16.6674 26.8695C16.7898 26.8688 16.9104 26.899 17.0179 26.9575C17.1232 27.0208 17.2104 27.11 17.2713 27.2167C17.3321 27.3233 17.3645 27.4439 17.3654 27.5667C17.3779 27.9017 17.4104 28.21 17.5321 28.5017C17.6471 28.7798 17.8159 29.0325 18.0286 29.2454C18.2414 29.4583 18.494 29.6272 18.7721 29.7425C19.0137 29.8425 19.2637 29.8817 19.5279 29.8992C19.7812 29.9167 20.0904 29.9167 20.4612 29.9167H20.5029C20.8737 29.9167 21.1829 29.9167 21.4362 29.9C21.7012 29.8817 21.9504 29.8425 22.1921 29.7417C22.4702 29.6266 22.7229 29.4579 22.9358 29.2451C23.1487 29.0323 23.3176 28.7797 23.4329 28.5017C23.5537 28.21 23.5862 27.9017 23.5996 27.5667C23.6009 27.444 23.6334 27.3238 23.6938 27.2171C23.7543 27.1104 23.8409 27.0208 23.9454 26.9567C24.0531 26.8982 24.1739 26.868 24.2965 26.8689C24.419 26.8697 24.5394 26.9017 24.6462 26.9617C24.9429 27.1183 25.2262 27.2442 25.5396 27.285C26.1421 27.3645 26.7515 27.2014 27.2337 26.8317C27.4421 26.6717 27.6004 26.475 27.7479 26.2558C27.8896 26.0442 28.0446 25.7767 28.2296 25.4558L28.2504 25.4192C28.4362 25.0983 28.5904 24.8308 28.7021 24.6025C28.8187 24.3642 28.9104 24.1283 28.9437 23.8692C29.0232 23.2667 28.8602 22.6573 28.4904 22.175C28.2979 21.9242 28.0471 21.7417 27.7637 21.5633C27.6582 21.5008 27.5703 21.4124 27.5082 21.3066C27.4461 21.2008 27.4119 21.081 27.4087 20.9583C27.4087 20.7267 27.5354 20.4967 27.7637 20.3533C28.0471 20.175 28.2971 19.9925 28.4904 19.7417C28.6736 19.5029 28.8081 19.2304 28.886 18.9398C28.9639 18.6491 28.9838 18.3459 28.9446 18.0475C28.9053 17.7913 28.8236 17.5435 28.7029 17.3142C28.5606 17.0373 28.4097 16.765 28.2504 16.4975L28.2296 16.4608C28.0774 16.1892 27.9167 15.9224 27.7479 15.6608C27.6096 15.442 27.4358 15.2476 27.2337 15.0858C26.9951 14.9025 26.7226 14.7679 26.4319 14.6898C26.1412 14.6117 25.838 14.5917 25.5396 14.6308C25.2262 14.6725 24.9429 14.7975 24.6462 14.955C24.5394 15.0147 24.4192 15.0464 24.2968 15.0472C24.1744 15.0479 24.0538 15.0176 23.9462 14.9592C23.8415 14.8953 23.7547 14.8059 23.6939 14.6994C23.6332 14.5929 23.6004 14.4726 23.5987 14.35C23.5862 14.015 23.5537 13.7067 23.4321 13.415C23.317 13.1369 23.1483 12.8841 22.9355 12.6712C22.7227 12.4583 22.4701 12.2894 22.1921 12.1742C21.9504 12.0742 21.7004 12.035 21.4362 12.0175C21.1829 12 20.8737 12 20.5029 12H20.4612ZM19.2504 13.3292C19.3146 13.3025 19.4121 13.2783 19.6129 13.2642C19.8187 13.25 20.0854 13.25 20.4821 13.25C20.8787 13.25 21.1454 13.25 21.3512 13.2642C21.5521 13.2783 21.6496 13.3025 21.7137 13.3292C21.9696 13.435 22.1721 13.6375 22.2779 13.8933C22.3112 13.9733 22.3387 14.0992 22.3496 14.3967C22.3746 15.0567 22.7154 15.6925 23.3204 16.0417C23.9254 16.3908 24.6462 16.3683 25.2304 16.06C25.4937 15.9208 25.6162 15.8817 25.7029 15.8708C25.9767 15.8347 26.2537 15.9087 26.4729 16.0767C26.5279 16.1192 26.5979 16.1917 26.7104 16.3583C26.8262 16.53 26.9596 16.7608 27.1579 17.1042C27.3562 17.4475 27.4887 17.6792 27.5796 17.8642C27.6687 18.045 27.6962 18.1417 27.7046 18.2108C27.7408 18.4846 27.6667 18.7616 27.4987 18.9808C27.4454 19.05 27.3504 19.1367 27.0987 19.295C26.5387 19.6467 26.1587 20.26 26.1587 20.9583C26.1587 21.6567 26.5387 22.27 27.0987 22.6217C27.3504 22.78 27.4454 22.8667 27.4987 22.9358C27.6671 23.155 27.7404 23.4317 27.7046 23.7058C27.6962 23.775 27.6679 23.8725 27.5796 24.0525C27.4887 24.2383 27.3562 24.4692 27.1579 24.8125C26.9596 25.1558 26.8254 25.3867 26.7104 25.5583C26.5979 25.725 26.5279 25.7975 26.4729 25.84C26.2537 26.008 25.9767 26.082 25.7029 26.0458C25.6162 26.035 25.4946 25.9958 25.2304 25.8567C24.6471 25.5483 23.9254 25.525 23.3204 25.8742C22.7154 26.2233 22.3746 26.86 22.3496 27.52C22.3387 27.8175 22.3112 27.9433 22.2779 28.0233C22.2256 28.1498 22.1488 28.2648 22.052 28.3616C21.9552 28.4584 21.8402 28.5351 21.7137 28.5875C21.6496 28.6142 21.5521 28.6383 21.3512 28.6525C21.1454 28.6667 20.8787 28.6667 20.4821 28.6667C20.0854 28.6667 19.8187 28.6667 19.6129 28.6525C19.4121 28.6383 19.3146 28.6142 19.2504 28.5875C19.1239 28.5351 19.009 28.4584 18.9122 28.3616C18.8154 28.2648 18.7386 28.1498 18.6862 28.0233C18.6529 27.9433 18.6254 27.8175 18.6146 27.52C18.5896 26.86 18.2487 26.2242 17.6437 25.875C17.0387 25.5258 16.3179 25.5483 15.7337 25.8567C15.4704 25.9958 15.3479 26.035 15.2612 26.0458C14.9874 26.082 14.7105 26.008 14.4912 25.84C14.4362 25.7975 14.3662 25.725 14.2537 25.5583C14.097 25.3144 13.9477 25.0656 13.8062 24.8125C13.6079 24.4692 13.4754 24.2375 13.3846 24.0525C13.2954 23.8717 13.2679 23.775 13.2596 23.7058C13.2234 23.432 13.2974 23.1551 13.4654 22.9358C13.5187 22.8667 13.6137 22.78 13.8654 22.6217C14.4254 22.27 14.8054 21.6567 14.8054 20.9583C14.8054 20.26 14.4254 19.6467 13.8654 19.295C13.6137 19.1367 13.5187 19.05 13.4654 18.9808C13.2974 18.7616 13.2234 18.4846 13.2596 18.2108C13.2679 18.1417 13.2962 18.0442 13.3846 17.8642C13.4754 17.6783 13.6079 17.4475 13.8062 17.1042C14.0046 16.7608 14.1387 16.53 14.2537 16.3583C14.3662 16.1917 14.4362 16.1192 14.4912 16.0767C14.7105 15.9087 14.9874 15.8347 15.2612 15.8708C15.3479 15.8817 15.4696 15.9208 15.7337 16.06C16.3171 16.3683 17.0387 16.3917 17.6437 16.0417C18.2487 15.6925 18.5896 15.0567 18.6146 14.3967C18.6254 14.0992 18.6529 13.9733 18.6862 13.8933C18.7921 13.6375 18.9946 13.435 19.2504 13.3292Z" fill="#2A2E33"/>
</svg>
