<svg width="42" height="42" viewBox="0 0 42 42" fill="none" xmlns="http://www.w3.org/2000/svg">
<path d="M0 20.9583C0 9.38337 9.42503 0 21 0C32.575 0 42 9.38337 42 20.9583C42 32.5333 32.575 41.9167 21 41.9167C9.42503 41.9167 0 32.5333 0 20.9583Z" fill="#F5F5F5"/>
<path fill-rule="evenodd" clip-rule="evenodd" d="M17.8333 18.4583C17.8333 17.6295 18.1626 16.8347 18.7486 16.2486C19.3347 15.6626 20.1295 15.3333 20.9583 15.3333C21.7871 15.3333 22.582 15.6626 23.168 16.2486C23.7541 16.8347 24.0833 17.6295 24.0833 18.4583C24.0833 19.2871 23.7541 20.082 23.168 20.668C22.582 21.2541 21.7871 21.5833 20.9583 21.5833C20.1295 21.5833 19.3347 21.2541 18.7486 20.668C18.1626 20.082 17.8333 19.2871 17.8333 18.4583ZM20.9583 16.5833C20.4611 16.5833 19.9841 16.7809 19.6325 17.1325C19.2809 17.4841 19.0833 17.961 19.0833 18.4583C19.0833 18.9556 19.2809 19.4325 19.6325 19.7841C19.9841 20.1358 20.4611 20.3333 20.9583 20.3333C21.4556 20.3333 21.9325 20.1358 22.2842 19.7841C22.6358 19.4325 22.8333 18.9556 22.8333 18.4583C22.8333 17.961 22.6358 17.4841 22.2842 17.1325C21.9325 16.7809 21.4556 16.5833 20.9583 16.5833Z" fill="#2A2E33"/>
<path fill-rule="evenodd" clip-rule="evenodd" d="M12 20.9583C12 16.0108 16.0108 12 20.9583 12C25.9058 12 29.9167 16.0108 29.9167 20.9583C29.9167 25.9058 25.9058 29.9167 20.9583 29.9167C16.0108 29.9167 12 25.9058 12 20.9583ZM20.9583 13.25C19.4356 13.2501 17.947 13.7012 16.6803 14.5463C15.4136 15.3915 14.4257 16.5929 13.8411 17.999C13.2564 19.4051 13.1014 20.9528 13.3954 22.4469C13.6895 23.941 14.4195 25.3145 15.4933 26.3942C15.6433 25.5833 15.9392 24.8192 16.5317 24.2042C17.4192 23.2842 18.8367 22.8333 20.9583 22.8333C23.08 22.8333 24.4975 23.2842 25.3842 24.2042C25.9775 24.8192 26.2725 25.5842 26.4233 26.395C27.4974 25.3154 28.2277 23.9418 28.5219 22.4475C28.8161 20.9533 28.6611 19.4054 28.0765 17.9992C27.4919 16.5929 26.5038 15.3914 25.2369 14.5462C23.9701 13.7009 22.4813 13.2499 20.9583 13.25ZM25.2867 27.3375C25.2017 26.3275 24.9825 25.5875 24.485 25.0717C23.9433 24.5108 22.9408 24.0833 20.9583 24.0833C18.9758 24.0833 17.9733 24.5108 17.4317 25.0717C16.9342 25.5883 16.715 26.3275 16.63 27.3383C17.9062 28.2067 19.4147 28.6697 20.9583 28.6667C22.502 28.6695 24.0106 28.2062 25.2867 27.3375Z" fill="#2A2E33"/>
</svg>
