<svg width="42" height="42" viewBox="0 0 42 42" fill="none" xmlns="http://www.w3.org/2000/svg">
<path d="M0 20.6667C0 9.25278 9.25278 0 20.6667 0H21.25C32.6639 0 41.9167 9.25278 41.9167 20.6667C41.9167 32.0806 32.6639 41.3333 21.25 41.3333H20.6667C9.25279 41.3333 0 32.0806 0 20.6667Z" fill="#F5F5F5"/>
<path d="M15.9583 17.3333H19.2917" stroke="#2A2E33" stroke-width="1.5" stroke-linecap="round" stroke-linejoin="round"/>
<path d="M28.3192 18.1667H26.1508C24.6633 18.1667 23.4583 19.2858 23.4583 20.6667C23.4583 22.0475 24.6642 23.1667 26.15 23.1667H28.3192C28.3892 23.1667 28.4233 23.1667 28.4525 23.165C28.9025 23.1375 29.2608 22.805 29.29 22.3875C29.2917 22.3608 29.2917 22.3283 29.2917 22.2642V19.0692C29.2917 19.005 29.2917 18.9725 29.29 18.9458C29.26 18.5283 28.9025 18.1958 28.4525 18.1683C28.4242 18.1667 28.3892 18.1667 28.3192 18.1667Z" stroke="#2A2E33" stroke-width="1.5"/>
<path d="M28.4292 18.1667C28.3642 16.6067 28.1558 15.65 27.4817 14.9767C26.5058 14 24.9342 14 21.7917 14H19.2917C16.1492 14 14.5775 14 13.6017 14.9767C12.6258 15.9533 12.625 17.5242 12.625 20.6667C12.625 23.8092 12.625 25.3808 13.6017 26.3567C14.5783 27.3325 16.1492 27.3333 19.2917 27.3333H21.7917C24.9342 27.3333 26.5058 27.3333 27.4817 26.3567C28.1558 25.6833 28.365 24.7267 28.4292 23.1667" stroke="#2A2E33" stroke-width="1.5"/>
<path d="M25.9508 20.6667H25.9583" stroke="#2A2E33" stroke-width="2" stroke-linecap="round" stroke-linejoin="round"/>
</svg>
