<svg width="42" height="42" viewBox="0 0 42 42" fill="none" xmlns="http://www.w3.org/2000/svg">
<rect width="41.33" height="41.33" rx="20.665" fill="#F5F5F5"/>
<path fill-rule="evenodd" clip-rule="evenodd" d="M20.9523 11.665H21.0477C22.9808 11.665 24.4953 11.665 25.6775 11.8241C26.8864 11.9865 27.8408 12.3264 28.5901 13.0749C29.3394 13.8242 29.6785 14.7786 29.8409 15.9884C30 17.1697 30 18.6842 30 20.6173V20.7127C30 22.6458 30 24.1604 29.8409 25.3425C29.6785 26.5514 29.3386 27.5058 28.5901 28.2551C27.8408 29.0044 26.8864 29.3435 25.6767 29.5059C24.4953 29.665 22.9808 29.665 21.0477 29.665H20.9523C19.0192 29.665 17.5047 29.665 16.3225 29.5059C15.1136 29.3435 14.1592 29.0036 13.4099 28.2551C12.6606 27.5058 12.3215 26.5514 12.1591 25.3417C12 24.1604 12 22.6458 12 20.7127V20.6173C12 18.6842 12 17.1697 12.1591 15.9875C12.3215 14.7786 12.6614 13.8242 13.4099 13.0749C14.1592 12.3256 15.1136 11.9865 16.3233 11.8241C17.5047 11.665 19.0192 11.665 20.9523 11.665ZM16.49 13.0682C15.42 13.2122 14.7745 13.4868 14.2981 13.9631C13.8209 14.4404 13.5472 15.085 13.4032 16.1558C13.2575 17.2442 13.2558 18.6741 13.2558 20.665C13.2558 22.6559 13.2575 24.0858 13.4032 25.1742C13.5472 26.245 13.8218 26.8905 14.2981 27.3677C14.7753 27.8441 15.42 28.1178 16.4908 28.2618C17.5792 28.4075 19.0091 28.4092 21 28.4092C22.9909 28.4092 24.4208 28.4075 25.5092 28.2618C26.58 28.1178 27.2255 27.8432 27.7027 27.3669C28.1791 26.8897 28.4528 26.245 28.5968 25.1742C28.7425 24.0858 28.7442 22.6559 28.7442 20.665C28.7442 18.6741 28.7425 17.2442 28.5968 16.1558C28.4528 15.085 28.1782 14.4395 27.7019 13.9623C27.2247 13.4859 26.58 13.2122 25.5092 13.0682C24.4208 12.9225 22.9909 12.9208 21 12.9208C19.0091 12.9208 17.5783 12.9225 16.49 13.0682ZM21.4077 15.8904C21.6623 15.7388 21.9572 15.6689 22.2527 15.6902C22.5482 15.7114 22.8301 15.8228 23.0604 16.0093C24.3656 17.0206 25.8148 18.7696 25.8148 21.2234C25.8148 23.2135 24.9709 24.5187 23.8792 25.3048C22.8193 26.0675 21.5668 26.3162 20.722 26.3162C19.6854 26.2992 18.6846 25.9341 17.8806 25.2797C16.9094 24.481 16.1869 23.1808 16.1869 21.2234C16.1869 19.3983 17.2401 18.2379 18.1049 17.6636C18.2625 17.5554 18.4436 17.4864 18.6333 17.4625C18.8229 17.4387 19.0155 17.4605 19.195 17.5263C19.5826 17.677 19.8447 18.037 19.8681 18.4807C19.8765 18.6314 19.9116 18.7696 19.9602 18.8826C19.9799 18.927 20.0034 18.9695 20.0305 19.0098C20.424 18.4631 20.6191 17.7172 20.6191 17.3162C20.6191 16.7042 20.9313 16.1709 21.4077 15.8904ZM22.0448 16.9721C21.9636 17.0206 21.8749 17.1353 21.8749 17.3162C21.8749 17.9851 21.5919 19.0132 21.0201 19.7843C20.82 20.053 20.542 20.2715 20.1854 20.3218C20.027 20.3418 19.8661 20.3284 19.7132 20.2822C19.5603 20.236 19.4188 20.1582 19.298 20.0538C18.9455 19.765 18.7236 19.3004 18.6449 18.8198C18.0555 19.2635 17.4427 20.0455 17.4427 21.2226C17.4427 22.8384 18.022 23.7702 18.6793 24.3102C19.2583 24.7796 19.9768 25.0434 20.722 25.0604C21.365 25.0604 22.3446 24.8619 23.1458 24.2859C23.9143 23.7325 24.559 22.8041 24.559 21.2234C24.559 19.3054 23.4287 17.883 22.291 17.0014C22.2527 16.9687 22.2054 16.9483 22.1553 16.9428C22.1167 16.9413 22.0776 16.9515 22.0448 16.9721Z" fill="black"/>
</svg>
