<svg width="42" height="41" viewBox="0 0 42 41" fill="none" xmlns="http://www.w3.org/2000/svg">
<path d="M0 20.3333C0 9.10354 9.10354 0 20.3333 0H21.5833C32.8131 0 41.9167 9.10354 41.9167 20.3333C41.9167 31.5631 32.8131 40.6667 21.5833 40.6667H20.3333C9.10355 40.6667 0 31.5631 0 20.3333Z" fill="#D1DCFF"/>
<path d="M12.9285 21.1317C12.6118 18.9342 12.4535 17.835 12.9043 16.8958C13.3552 15.9567 14.3135 15.385 16.231 14.2433L17.3852 13.5558C19.1252 12.5183 19.9968 12 20.9585 12C21.9202 12 22.791 12.5183 24.5318 13.5558L25.686 14.2433C27.6027 15.385 28.5618 15.9567 29.0127 16.8958C29.4635 17.835 29.3043 18.9342 28.9877 21.1317L28.756 22.7458C28.3502 25.5692 28.1468 26.98 27.1677 27.8233C26.1885 28.6667 24.7527 28.6667 21.8802 28.6667H20.0368C17.1643 28.6667 15.7285 28.6667 14.7493 27.8233C13.7702 26.98 13.5668 25.5692 13.161 22.7458L12.9285 21.1317Z" stroke="#0641FC" stroke-width="1.5"/>
<path d="M23.4585 25.3333H18.4585" stroke="#0641FC" stroke-width="1.5" stroke-linecap="round"/>
</svg>
