<svg width="42" height="42" viewBox="0 0 42 42" fill="none" xmlns="http://www.w3.org/2000/svg">
<path d="M0 20.9584C0 9.38347 9.38337 0 20.9583 0C32.5333 0 41.9167 9.38347 41.9167 20.9584C41.9167 32.5334 32.5333 41.9169 20.9583 41.9169C9.38337 41.9169 0 32.5334 0 20.9584Z" fill="#F5F5F5"/>
<path d="M22.4017 29.1L22.8533 28.3367L21.7783 27.7L21.3258 28.4633L22.4017 29.1ZM19.0633 28.3367L19.515 29.1L20.59 28.4633L20.1392 27.7L19.0633 28.3367ZM21.3258 28.4633C21.2869 28.5257 21.2327 28.5771 21.1684 28.6127C21.1041 28.6484 21.0318 28.6671 20.9583 28.6671C20.8848 28.6671 20.8125 28.6484 20.7482 28.6127C20.6839 28.5771 20.6298 28.5257 20.5908 28.4633L19.515 29.1C20.1592 30.1892 21.7567 30.1892 22.4017 29.1L21.3258 28.4633ZM19.7083 13.25H22.2083V12H19.7083V13.25ZM28.6667 19.7083V20.5417H29.9167V19.7083H28.6667ZM13.25 20.5417V19.7083H12V20.5417H13.25ZM12 20.5417C12 21.5042 12 22.2567 12.0417 22.8642C12.0833 23.4767 12.1692 23.9867 12.365 24.4583L13.52 23.98C13.3975 23.6867 13.3258 23.3283 13.2883 22.7792C13.25 22.2242 13.25 21.5208 13.25 20.5417H12ZM17.4608 26.16C16.4142 26.1417 15.8658 26.075 15.4358 25.8967L14.9583 27.0517C15.6292 27.33 16.3925 27.3925 17.4392 27.4108L17.4608 26.16ZM12.365 24.4583C12.6058 25.0397 12.9588 25.568 13.4037 26.0129C13.8487 26.4579 14.377 26.8109 14.9583 27.0517L15.4358 25.8967C14.5681 25.5372 13.8795 24.8478 13.52 23.98L12.365 24.4583ZM28.6667 20.5417C28.6667 21.5208 28.6667 22.2242 28.6283 22.7792C28.5908 23.3283 28.5192 23.6867 28.3975 23.98L29.5517 24.4583C29.7475 23.9867 29.8333 23.4767 29.8758 22.8642C29.9175 22.2567 29.9167 21.5042 29.9167 20.5417H28.6667ZM24.4775 27.4092C25.5242 27.3917 26.2875 27.33 26.9583 27.0517L26.48 25.8967C26.0508 26.075 25.5025 26.1417 24.4567 26.16L24.4775 27.4092ZM28.3975 23.98C28.038 24.8478 27.3486 25.5372 26.4808 25.8967L26.9583 27.0517C27.5397 26.8109 28.068 26.4579 28.5129 26.0129C28.9579 25.568 29.3109 25.0397 29.5517 24.4583L28.3975 23.98ZM22.2083 13.25C23.5842 13.25 24.5725 13.25 25.3433 13.3242C26.105 13.3967 26.5892 13.535 26.9758 13.7717L27.6283 12.7058C27.0125 12.3292 26.3142 12.1608 25.4617 12.0792C24.6183 11.9992 23.56 12 22.2083 12V13.25ZM29.9167 19.7083C29.9167 18.3567 29.9167 17.2992 29.8367 16.455C29.7558 15.6025 29.5875 14.9033 29.2108 14.2883L28.1442 14.9408C28.3817 15.3275 28.52 15.8117 28.5925 16.5742C28.6658 17.3442 28.6667 18.3325 28.6667 19.7083H29.9167ZM26.975 13.7717C27.4518 14.0636 27.8527 14.4642 28.145 14.9408L29.2108 14.2883C28.8156 13.6433 28.2734 13.101 27.6283 12.7058L26.975 13.7717ZM19.7083 12C18.3567 12 17.2992 12 16.455 12.0792C15.6025 12.1608 14.9033 12.3292 14.2883 12.7058L14.9408 13.7725C15.3275 13.535 15.8117 13.3967 16.5742 13.3242C17.3442 13.2508 18.3325 13.25 19.7083 13.25V12ZM13.25 19.7083C13.25 18.3325 13.25 17.3442 13.3242 16.5733C13.3967 15.8117 13.535 15.3275 13.7717 14.9408L12.7058 14.2892C12.3292 14.9042 12.1608 15.6025 12.0792 16.455C12 17.3 12 18.3567 12 19.7083H13.25ZM14.2883 12.7058C13.6433 13.101 13.101 13.6441 12.7058 14.2892L13.7725 14.9408C14.0643 14.4644 14.4646 14.0638 14.9408 13.7717L14.2883 12.7058ZM20.1383 27.7C19.97 27.4142 19.8217 27.1617 19.6767 26.9633C19.5281 26.7454 19.3342 26.562 19.1083 26.4258L18.48 27.5067C18.5192 27.53 18.5733 27.5717 18.6667 27.7C18.7675 27.8383 18.8817 28.03 19.0633 28.3367L20.1383 27.7ZM17.4392 27.4092C17.8058 27.4158 18.0367 27.4208 18.2133 27.44C18.3783 27.4583 18.4425 27.485 18.48 27.5067L19.1083 26.4258C18.8755 26.2955 18.6169 26.2176 18.3508 26.1975C18.1025 26.17 17.8042 26.1658 17.4608 26.16L17.4392 27.4092ZM22.8533 28.3367C23.035 28.0308 23.1492 27.8383 23.25 27.7C23.3433 27.5717 23.3975 27.53 23.4367 27.5067L22.8083 26.4258C22.5667 26.5675 22.3917 26.755 22.24 26.9633C22.0958 27.1617 21.9467 27.4133 21.7775 27.7L22.8533 28.3367ZM24.4567 26.16C24.1133 26.1658 23.8142 26.17 23.5658 26.1975C23.3067 26.2267 23.0525 26.2842 22.8083 26.4258L23.4367 27.5067C23.4742 27.485 23.5383 27.4583 23.7033 27.44C23.88 27.4208 24.1117 27.415 24.4783 27.4092L24.4567 26.16Z" fill="#2A2E33"/>
<path d="M23.875 17.4833L24.0183 17.6266C25.1292 18.7375 25.685 19.2933 25.685 19.9833C25.685 20.6741 25.1292 21.2291 24.0183 22.3408L23.875 22.4833M22.0367 15.9583L20.9583 19.9833L19.88 24.0083M18.0417 17.4833L17.8992 17.6266C16.7875 18.7375 16.2325 19.2933 16.2325 19.9833C16.2325 20.6741 16.7875 21.2291 17.8992 22.3408L18.0417 22.4833" stroke="#2A2E33" stroke-width="1.5" stroke-linecap="round"/>
</svg>
