<svg width="42" height="41" viewBox="0 0 42 41" fill="none" xmlns="http://www.w3.org/2000/svg">
<path d="M0 20.0833C0 8.99162 8.99161 0 20.0833 0H21.8333C32.925 0 41.9167 8.99162 41.9167 20.0833C41.9167 31.1751 32.9251 40.1667 21.8333 40.1667H20.0833C8.99162 40.1667 0 31.1751 0 20.0833Z" fill="#F5F5F5"/>
<path d="M26.5142 19.6667C28.0833 19.4342 29.2917 18.0383 29.2917 16.35C29.2917 14.5 27.8408 13 26.0508 13H15.8667C14.075 13 12.625 14.5 12.625 16.35C12.625 18.0383 13.8325 19.4342 15.4025 19.6667" stroke="#2A2E33" stroke-width="1.5"/>
<path d="M20.9583 15.5V21.3333M20.9583 21.3333L22.625 19.3892M20.9583 21.3333L19.2917 19.3892" stroke="#2A2E33" stroke-width="1.5" stroke-linecap="round" stroke-linejoin="round"/>
<path d="M15.125 18.8333C15.125 17.2617 15.125 16.4767 15.6133 15.9883C16.1017 15.5 16.8867 15.5 18.4583 15.5H23.4583C25.03 15.5 25.815 15.5 26.3033 15.9883C26.7917 16.4767 26.7917 17.2617 26.7917 18.8333V23.8333C26.7917 25.405 26.7917 26.19 26.3033 26.6783C25.815 27.1667 25.03 27.1667 23.4583 27.1667H18.4583C16.8867 27.1667 16.1017 27.1667 15.6133 26.6783C15.125 26.19 15.125 25.405 15.125 23.8333V18.8333Z" stroke="#2A2E33" stroke-width="1.5"/>
<path d="M15.125 24.6667H26.7917" stroke="#2A2E33" stroke-width="1.5" stroke-linecap="round" stroke-linejoin="round"/>
</svg>
