<svg width="42" height="41" viewBox="0 0 42 41" fill="none" xmlns="http://www.w3.org/2000/svg">
<path d="M0 20.3333C0 9.10355 9.10355 0 20.3333 0H21.5833C32.8131 0 41.9167 9.10355 41.9167 20.3333C41.9167 31.5631 32.8131 40.6667 21.5833 40.6667H20.3333C9.10355 40.6667 0 31.5631 0 20.3333Z" fill="#F5F5F5"/>
<path d="M20.3333 28.6667C24.9358 28.6667 28.6667 24.9358 28.6667 20.3333C28.6667 15.7308 24.9358 12 20.3333 12C15.7308 12 12 15.7308 12 20.3333C12 21.6667 12.3133 22.9267 12.8692 24.0442C13.0175 24.3408 13.0667 24.68 12.9808 25.0008L12.485 26.8558C12.4359 27.0394 12.4359 27.2327 12.4851 27.4162C12.5343 27.5998 12.6309 27.7672 12.7653 27.9016C12.8996 28.036 13.0669 28.1327 13.2504 28.182C13.434 28.2313 13.6272 28.2315 13.8108 28.1825L15.6658 27.6858C15.9878 27.6045 16.3284 27.6439 16.6233 27.7967C17.7758 28.3705 19.0459 28.6683 20.3333 28.6667Z" stroke="#2A2E33" stroke-width="1.5"/>
<path d="M20.3333 23.1108C21.2542 23.1108 22 22.4892 22 21.7225C22 20.9558 21.2542 20.3333 20.3333 20.3333C19.4125 20.3333 18.6667 19.7117 18.6667 18.9442C18.6667 18.1775 19.4125 17.5558 20.3333 17.5558M20.3333 23.1108C19.4125 23.1108 18.6667 22.4892 18.6667 21.7225M20.3333 23.1108V23.6667M20.3333 17.5558V17M20.3333 17.5558C21.2542 17.5558 22 18.1775 22 18.9442" stroke="#2A2E33" stroke-width="1.5" stroke-linecap="round"/>
</svg>
